<?xml version="1.0" standalone="no"?>
<!DOCTYPE svg PUBLIC "-//W3C//DTD SVG 20010904//EN"
 "http://www.w3.org/TR/2001/REC-SVG-20010904/DTD/svg10.dtd">
<svg version="1.0" xmlns="http://www.w3.org/2000/svg"
 width="1080.000000pt" height="1080.000000pt" viewBox="0 0 1080.000000 1080.000000"
 preserveAspectRatio="xMidYMid meet">

<g transform="translate(0.000000,1080.000000) scale(0.100000,-0.100000)"
fill="#000000" stroke="none">
<path d="M1205 10443 c-16 -2 -66 -13 -110 -25 -345 -87 -612 -353 -717 -714
l-23 -79 0 -4230 0 -4230 28 -90 c109 -353 378 -614 721 -700 l99 -25 4193 0
c3612 0 4202 2 4261 14 296 63 555 261 688 526 46 91 71 162 90 253 13 59 15
636 15 4261 l0 4193 -25 99 c-29 119 -113 291 -185 381 -141 177 -357 307
-585 354 -87 18 -227 19 -4255 17 -2291 0 -4178 -3 -4195 -5z m8380 -508 c165
-44 307 -181 351 -342 18 -66 19 -195 19 -4198 0 -3972 -1 -4132 -18 -4190
-47 -153 -166 -278 -323 -337 l-59 -23 -4118 -3 c-4505 -2 -4192 -6 -4316 54
-68 34 -180 143 -214 209 -13 28 -32 74 -41 104 -15 50 -16 416 -16 4192 0
4098 0 4137 20 4201 49 161 196 299 356 337 23 5 1700 9 4169 10 3681 1 4137
-1 4190 -14z"/>
<path d="M5170 9064 c-518 -35 -986 -161 -1441 -390 -153 -76 -306 -161 -314
-173 -4 -7 1340 -2266 1365 -2294 4 -5 70 21 146 56 183 86 256 107 380 114
172 10 390 -39 618 -138 50 -22 93 -36 97 -32 4 5 129 231 279 503 150 272
430 780 622 1129 193 348 352 641 354 650 3 11 -21 30 -88 68 -490 274 -959
431 -1452 488 -129 15 -463 26 -566 19z"/>
<path d="M5245 5715 c-123 -27 -262 -108 -345 -202 -150 -171 -196 -424 -115
-639 163 -433 753 -552 1089 -219 345 343 177 933 -300 1055 -90 23 -236 26
-329 5z"/>
<path d="M1436 5028 c-11 -69 -13 -300 -5 -471 26 -541 171 -1029 449 -1513
261 -455 660 -859 1168 -1184 164 -104 202 -124 212 -113 9 8 162 246 945
1458 507 786 511 792 504 798 -2 2 -51 35 -109 73 -150 98 -263 213 -322 329
-73 143 -114 299 -138 535 -6 57 -14 108 -16 112 -3 4 -608 8 -1344 8 l-1339
0 -5 -32z"/>
<path d="M6676 5048 c-2 -7 -11 -77 -20 -155 -27 -232 -79 -409 -162 -545 -53
-87 -155 -183 -287 -268 -64 -41 -116 -78 -117 -82 0 -7 163 -261 772 -1203
145 -225 356 -552 468 -725 112 -173 207 -319 211 -324 17 -19 375 212 569
367 708 567 1136 1333 1246 2232 18 146 26 678 10 703 -11 18 -2685 17 -2690
0z"/>
</g>
</svg>
